<?xml version="1.0" encoding="utf-8"?>
<!-- Generator: Adobe Illustrator 19.2.1, SVG Export Plug-In . SVG Version: 6.00 Build 0)  -->
<svg version="1.1" id="Layer_1" xmlns="http://www.w3.org/2000/svg" xmlns:xlink="http://www.w3.org/1999/xlink" x="0px" y="0px"
	 viewBox="0 0 280.4 45" style="enable-background:new 0 0 280.4 45;" xml:space="preserve">
<style type="text/css">
	.st0{fill:#A52D21;}
</style>
<g>
	<path class="st0" d="M24.4,17.5c-0.3,1.2-0.9,2.4-1.6,3.4c-0.6,0.9-1.4,1.7-2.3,2.4c-0.9,0.6-1.8,1.1-2.8,1.5s-2,0.6-3,0.8
		c-1,0.2-2,0.2-3,0.2H0v-0.4c0.5-0.1,1.1-0.2,1.6-0.5c0.4-0.2,0.8-0.5,1.1-0.8c0.1-0.2,0.2-0.4,0.2-0.6C3,23.3,3,23,3.1,22.6
		s0.1-0.7,0.1-1.1s0-0.8,0-1.2c0-0.3,0-0.8,0-1.3c0-0.6,0-1.2,0-1.8c0-0.7,0-1.4,0-2.1V4.9c0-0.4,0-0.8,0-1.2c0-0.3-0.1-0.7-0.1-1
		C3.1,2.5,3,2.2,2.8,2C2.5,1.7,2.1,1.4,1.6,1.2C1.2,1,0.6,0.9,0.1,0.8V0.5c0.9,0,2.2,0,3.9,0s3.7,0,6.1,0h2c0.7,0,1.4,0,2.1,0.1
		c0.7,0.1,1.4,0.2,2.1,0.4s1.4,0.4,2.1,0.7c0.9,0.4,1.8,1,2.5,1.6C21.7,4,22.4,4.8,23,5.6c0.6,1,1.1,2,1.4,3.1
		c0.4,1.3,0.5,2.7,0.5,4.1C25,14.4,24.8,15.9,24.4,17.5z M20.5,8.9c-0.4-1.2-0.9-2.4-1.6-3.5c-0.7-1-1.5-1.9-2.4-2.7
		c-0.9-0.7-2-1.2-3.1-1.4c-0.5-0.1-0.9-0.2-1.4-0.2C11.3,1,10.7,1,10.1,1C9.8,1,9.5,1,9.3,1S8.7,1,8.4,1.1S7.8,1.2,7.6,1.2
		c-0.2,0-0.4,0-0.6,0.1C6.9,2.5,6.8,4,6.8,6.1c0,2,0,4.4,0,7.2v4.1c0,1.2,0,2.2,0,3c0,0.3,0,0.7,0,1.1s0.1,0.8,0.1,1.1
		c0,0.3,0.1,0.7,0.2,1c0.1,0.2,0.2,0.5,0.3,0.7c0.4,0.5,1,0.8,1.6,0.9s1.2,0.2,1.8,0.2s1.1,0,1.6-0.1s1.1-0.2,1.6-0.3
		c2.2-0.7,4.1-2.2,5.2-4.2c1.2-2.4,1.8-5.1,1.7-7.8C21.1,11.5,20.9,10.2,20.5,8.9z"/>
	<path class="st0" d="M53.1,18.2c-0.6,1.5-1.5,2.9-2.6,4.2c-1.1,1.2-2.4,2.1-3.8,2.7c-3,1.3-6.3,1.3-9.3,0c-1.4-0.6-2.7-1.5-3.8-2.6
		c-1.1-1.2-2-2.6-2.6-4.1c-0.6-1.7-1-3.4-0.9-5.2c0-1.9,0.3-3.7,1-5.4c0.6-1.5,1.5-2.9,2.7-4.1c1.1-1.1,2.5-2,3.9-2.6
		c1.5-0.6,3.1-0.9,4.8-0.9s3.4,0.3,4.9,1.1C48.7,1.9,50,2.8,51,4s1.8,2.6,2.3,4.1c0.5,1.6,0.8,3.2,0.8,4.9
		C54.1,14.8,53.8,16.5,53.1,18.2z M49.6,8.7c-0.3-1.4-0.8-2.7-1.5-4c-0.6-1.1-1.5-2.1-2.5-2.9c-1-0.7-2.3-1.1-3.6-1.1
		s-2.6,0.4-3.6,1.1c-1,0.8-1.9,1.7-2.5,2.9c-0.7,1.3-1.2,2.6-1.4,4c-0.3,1.5-0.5,3-0.5,4.5c0,1.6,0.2,3.1,0.5,4.6
		c0.3,1.4,0.8,2.7,1.5,3.9c0.6,1.1,1.5,2,2.5,2.7s2.3,1,3.5,1c1.3,0,2.5-0.4,3.5-1.1c1-0.8,1.9-1.8,2.5-2.9c0.7-1.3,1.2-2.6,1.5-4
		c0.3-1.5,0.5-2.9,0.5-4.4C50.1,11.6,49.9,10.1,49.6,8.7L49.6,8.7z"/>
	<path class="st0" d="M77.9,25.8v-0.4c0.8,0,1.6-0.2,2.3-0.6c0.5-0.3,1-0.7,1.2-1.3c0.1-0.4,0.2-0.8,0.3-1.1
		c0.1-0.5,0.1-0.9,0.1-1.4c0-1.5,0.1-3,0.1-4.4V2.2C81.2,3.9,80.6,5.5,80,7s-1.2,2.9-1.7,4.3c-0.6,1.4-1.2,2.8-1.7,4.2
		s-1.2,3-1.9,4.8c-0.1,0.2-0.3,0.6-0.4,1.1c-0.2,0.5-0.4,1-0.6,1.5s-0.4,1-0.5,1.4c-0.2,0.4-0.3,0.7-0.3,0.9h-0.2
		c-0.7-1.7-1.4-3.5-2-5.2s-1.3-3.4-2-4.9c-0.6-1.6-1.2-3.1-1.8-4.5S65.7,8,65.2,7c-0.4-1.1-0.8-2-1.1-2.7c-0.3-0.7-0.5-1.2-0.6-1.5
		c0,1.5,0,2.9,0,4.1s0,2.4,0,3.5c0,1.2,0,2.4,0,3.7v4.5c0,1.1,0,2.1,0.1,2.9c0,0.7,0.2,1.4,0.5,2c0.2,0.5,0.7,1,1.2,1.3
		c0.7,0.4,1.4,0.6,2.2,0.7v0.4H59v-0.3c0.6-0.1,1.3-0.4,1.8-0.7c0.5-0.3,0.9-0.8,1.1-1.3c0.3-0.7,0.5-1.4,0.6-2.1c0.1-1,0.2-2,0.2-3
		s0.1-2.2,0.1-3.6s0-2.8,0-4.4V5.9c0-0.5,0-1,0-1.7c0-0.6-0.1-1.1-0.4-1.6c-0.2-0.4-0.5-0.7-0.8-1c-0.3-0.2-0.7-0.4-1-0.5
		C60.3,1,60,0.9,59.7,0.8V0.5h6.8l7.6,19.1c0.9-2.2,1.9-4.4,2.8-6.7c0.9-2.2,1.7-4.2,2.4-6c0.7-1.8,1.3-3.3,1.8-4.5s0.7-1.9,0.8-2.1
		h6.8v0.4c-0.7,0-1.4,0.2-2,0.6c-0.4,0.3-0.8,0.8-0.9,1.3c-0.2,0.6-0.2,1.2-0.3,1.9c0,0.8-0.1,1.7-0.1,2.5c0,1.1,0,2.2,0,3.3v7
		c0,1.2,0,2.6,0,3.9c0,0.5,0,0.9,0.1,1.4c0,0.4,0.1,0.7,0.3,1.1c0.1,0.1,0.2,0.2,0.2,0.3c0.2,0.2,0.4,0.4,0.6,0.6
		c0.3,0.2,0.6,0.4,1,0.5c0.4,0.2,0.9,0.3,1.3,0.3v0.4L77.9,25.8z"/>
	<path class="st0" d="M107.3,25.8v-0.4c0.2,0,0.3,0,0.5-0.1c0.3-0.1,0.5-0.1,0.8-0.2s0.5-0.3,0.7-0.5s0.3-0.5,0.3-0.8
		c0-0.4-0.1-0.7-0.2-1c-0.1-0.5-0.3-1.1-0.5-1.8s-0.5-1.5-0.7-2.3c-0.3-0.8-0.6-1.7-0.9-2.6h-8.5c-0.3,0.9-0.6,1.7-0.9,2.6
		c-0.3,0.8-0.6,1.6-0.9,2.4c-0.4,0.9-0.6,1.8-0.7,2.7c0,0.3,0.1,0.5,0.3,0.8c0.2,0.2,0.4,0.4,0.7,0.5c0.3,0.1,0.6,0.2,0.9,0.3
		c0.3,0.1,0.6,0.1,0.9,0.2V26h-6.8v-0.4c0.5-0.1,1-0.2,1.4-0.5c0.3-0.1,0.5-0.3,0.7-0.5c0.3-0.4,0.5-0.8,0.7-1.2
		c0.5-0.9,0.9-1.8,1.2-2.7c0.4-1.1,0.9-2.4,1.5-3.8s1.1-2.9,1.7-4.3c0.6-1.5,1.2-3,1.7-4.5s1.1-2.9,1.6-4.2l-0.3-0.8
		c0.4-0.2,0.7-0.4,1-0.7c0.3-0.2,0.6-0.5,0.8-0.8c0.2-0.3,0.4-0.5,0.6-0.8s0.3-0.5,0.4-0.6h0.3c0.7,1.9,1.3,3.8,1.9,5.5
		s1.2,3.4,1.7,5.1c0.5,1.6,1.1,3.2,1.6,4.7s1,3,1.5,4.5c0.2,0.7,0.5,1.3,0.7,1.8l0.7,1.6c0.1,0.2,0.2,0.3,0.3,0.5
		c0.2,0.3,0.4,0.5,0.6,0.7c0.3,0.3,0.6,0.5,0.9,0.7c0.4,0.2,0.8,0.3,1.3,0.3V26L107.3,25.8z M103.1,4.5c-0.1,0.3-0.3,0.8-0.6,1.4
		s-0.5,1.5-0.9,2.4s-0.8,2-1.2,3.2c-0.4,1.2-0.9,2.5-1.4,3.9h8c-0.4-1.1-0.7-2.1-1.1-3.2s-0.7-2.1-1.1-3c-0.4-1-0.7-1.9-1-2.7
		C103.6,5.7,103.3,5,103.1,4.5z"/>
	<path class="st0" d="M120.3,25.8v-0.4c0.5-0.1,1-0.2,1.5-0.5c0.5-0.2,0.9-0.5,1.2-0.9c0.1-0.2,0.2-0.4,0.2-0.6
		c0.1-0.3,0.1-0.6,0.1-0.9c0-0.4,0.1-0.7,0.1-1.1s0-0.8,0-1.1c0-0.3,0-0.8,0-1.3s0-1.2,0-1.8c0-0.7,0-1.4,0-2.1V4.9
		c0-0.4,0-0.8,0-1.2c0-0.3-0.1-0.7-0.1-1c0-0.2-0.1-0.5-0.3-0.7c-0.3-0.4-0.7-0.7-1.1-0.9c-0.5-0.2-1-0.3-1.5-0.4V0.5h9.6v0.4
		c-0.5,0.1-1,0.2-1.4,0.4c-0.5,0.2-1,0.6-1.2,1.1s-0.3,1-0.3,1.5c0,0.6,0,1.2,0,1.7c0,0.6,0,1.2,0,1.7c0,0.6,0,1.2,0,1.7v11.8
		c0,0.7,0,1.3,0,2c0,0.5,0.1,0.9,0.3,1.3c0.3,0.4,0.7,0.8,1.2,0.9c0.5,0.2,1,0.3,1.5,0.4v0.4L120.3,25.8z"/>
	<path class="st0" d="M160,1.5c-0.5,0.4-0.9,0.9-1.1,1.5c-0.2,0.6-0.3,1.3-0.3,2c0,1-0.1,2-0.1,3s-0.1,2.2-0.1,3.6s0,2.8-0.1,4.4
		v2.3c0,0.8,0,1.7,0,2.5c0,0.9,0,1.7,0,2.6v2.3c0,0.1,0,0.2-0.1,0.2C158.1,26,158,26,158,26c-0.2,0-0.4-0.2-0.6-0.4
		c-1.8-2.3-3.5-4.4-5-6.3c-1.5-1.9-2.9-3.8-4.3-5.5c-1.4-1.7-2.7-3.5-4-5.1c-1.3-1.7-2.7-3.4-4.1-5.2v14.9c0,1.2,0,2.3,0.1,3.2
		c0,0.7,0.1,1.5,0.4,2.1c0.2,0.5,0.6,0.9,1.1,1.2c0.6,0.3,1.3,0.5,2.1,0.6v0.4h-7.9v-0.4c0.5-0.1,1-0.2,1.5-0.4
		c0.5-0.2,0.9-0.6,1.2-1.1c0.3-0.7,0.5-1.4,0.6-2.2c0.1-1,0.1-2.1,0.2-3.5c0-1,0.1-2.2,0.1-3.6s0-2.8,0-4.4V6c0-0.5,0-1,0-1.7
		c0-0.6-0.2-1.1-0.4-1.7c-0.2-0.4-0.5-0.7-0.8-1c-0.3-0.2-0.7-0.4-1-0.5c-0.4-0.1-0.7-0.2-1.1-0.2V0.5h6.5L157.8,20V8
		c0-0.9,0-1.8,0-2.7c0-0.7-0.1-1.4-0.3-2s-0.6-1.2-1.1-1.6c-0.7-0.5-1.5-0.8-2.4-0.9V0.5h7.9v0.4C161.2,0.9,160.6,1.2,160,1.5z"/>
	<path class="st0" d="M186.9,25.8h-19.6v-0.4c0.5-0.1,1-0.2,1.5-0.5c0.4-0.2,0.8-0.5,1.1-0.9c0.1-0.2,0.2-0.4,0.3-0.6
		c0.1-0.3,0.1-0.6,0.2-0.9c0.1-0.4,0.1-0.7,0.1-1.1s0-0.8,0-1.1c0-0.3,0-0.8,0-1.3s0-1.2,0-1.8c0-0.7,0-1.4,0-2.1V6.2
		c0-0.4,0-0.9,0-1.3s0-0.9-0.1-1.3c0-0.4-0.1-0.7-0.2-1.1c0-0.2-0.1-0.5-0.3-0.7c-0.3-0.3-0.6-0.6-1-0.7c-0.5-0.1-0.9-0.2-1.4-0.3
		V0.5h17.7l2.2,5.8l-0.3,0.2c-1.3-1.9-2.9-3.6-4.9-4.8c-0.6-0.3-1.3-0.4-2-0.5C179.1,1,177.9,1,176.7,1c-0.4,0-0.9,0-1.4,0.1
		c-0.3,0-0.7,0.1-1,0.1c0,0.4-0.1,1.2-0.1,2.3s0,2.5,0,4.1v2.3c0,0.6,0,1.1,0,1.5s0,0.7,0,0.9v0.4h0.6c0.3,0,0.7,0,1.1,0
		c0.4,0,0.8-0.1,1.2-0.1s0.7-0.1,1-0.2c0.6-0.1,1.1-0.4,1.6-0.7c0.4-0.3,0.8-0.6,1-1c0.3-0.4,0.5-0.9,0.6-1.4
		c0.2-0.6,0.3-1.2,0.4-1.8h0.4v11.1h-0.4c-0.2-0.8-0.4-1.6-0.8-2.3c-0.3-0.7-0.6-1.3-1.1-1.8c-0.4-0.3-0.8-0.6-1.2-0.8
		c-0.5-0.2-1.1-0.4-1.7-0.4c-0.3,0-0.6,0-0.8-0.1c-0.2,0-0.4,0-0.6,0H174c0,0.5-0.1,1-0.1,1.4v4.2c0,0.4,0,0.7,0,1.1
		c0,0.3,0,0.6,0,0.9c0,0.8,0.1,1.5,0.1,2.1c0,0.5,0.1,1,0.4,1.5c0.3,0.4,0.8,0.7,1.4,0.7c0.8,0.1,1.6,0.2,2.4,0.2c0.4,0,0.8,0,1.4,0
		c0.6,0,1.2-0.1,1.8-0.2c0.7-0.1,1.3-0.3,1.9-0.5c0.6-0.3,1.2-0.7,1.7-1.1c0.6-0.5,1.1-1.2,1.6-1.8c0.6-0.8,1.1-1.7,1.6-2.6l0.4,0.1
		L186.9,25.8z"/>
	<path class="st0" d="M220.8,25.8c-0.2-0.2-0.3-0.4-0.4-0.5s-0.2-0.2-0.3-0.4c-0.1-0.2-0.3-0.4-0.4-0.6c-0.2-0.3-0.4-0.7-0.8-1.2
		c-0.4-0.7-0.8-1.2-1.1-1.8c-0.3-0.5-0.6-1.1-0.9-1.6c-0.3-0.5-0.7-1-1-1.6c-0.4-0.5-0.8-1.1-1.3-1.8c-0.4-0.5-0.9-1-1.4-1.5
		c-0.4-0.4-1-0.7-1.6-0.9c-0.3-0.1-0.6-0.1-0.9-0.1c-0.2,0-0.4,0-0.7,0v4c0,1.1,0,2.1,0,2.9s0,1.4,0.1,1.9c0,0.5,0.1,0.9,0.4,1.3
		c0.3,0.4,0.6,0.7,1,0.9c0.6,0.4,1.3,0.5,2,0.5v0.4h-10.2v-0.4c0.5-0.1,1-0.2,1.5-0.4c0.5-0.2,0.9-0.5,1.1-0.8
		c0.1-0.2,0.2-0.4,0.3-0.6c0.1-0.3,0.1-0.6,0.1-1s0.1-0.7,0.1-1.1s0-0.8,0-1.2c0-0.3,0-0.8,0-1.3c0-0.6,0-1.2,0-1.8
		c0-0.7,0-1.4,0-2.1V6.2c0-0.4,0-0.9,0-1.3s0-0.8-0.1-1.2c0-0.4-0.1-0.7-0.2-1.1c0-0.2-0.1-0.5-0.3-0.7c-0.3-0.3-0.7-0.6-1.1-0.8
		c-0.5-0.1-1-0.3-1.5-0.3V0.5h1.3c0.7,0,1.5,0,2.5,0s1.8,0,2.8,0h2.2c1.4,0,2.7,0,3.8,0.1s2.1,0.4,3,0.9s1.7,1.3,2.3,2.2
		c0.6,1.1,0.9,2.3,0.9,3.5c0,0.8-0.1,1.6-0.4,2.3c-0.3,0.7-0.7,1.3-1.2,1.8s-1.1,1-1.7,1.4c-0.6,0.4-1.3,0.7-2,1v0.1
		c0.4,0.2,0.8,0.6,1.1,0.9c0.4,0.4,0.7,0.9,1,1.3c0.6,0.9,1.2,1.9,1.8,2.9c0.7,1,1.2,1.9,1.7,2.7c0.6,1,1.4,1.9,2.3,2.7
		c0.8,0.6,1.7,0.9,2.6,1.1v0.4L220.8,25.8z M217.7,3.9c-0.6-0.9-1.4-1.7-2.3-2.2c-0.5-0.3-1.1-0.4-1.6-0.6C213.1,1,212.5,1,211.9,1
		c-0.4,0-0.8,0-1.1,0s-0.5,0-0.6,0.1c0,0.1,0,0.3-0.1,0.4c0,0.1,0,0.3,0,0.4c0,0.2,0,0.4,0,0.7s0,0.7,0,1.2c0,0.8,0,1.7,0,2.8
		s0,2,0,3v3.9c0.8,0,1.6,0,2.4-0.1c0.7-0.1,1.5-0.3,2.2-0.5c0.6-0.2,1.2-0.5,1.8-1c0.5-0.4,0.9-0.8,1.2-1.4c0.3-0.5,0.5-1.1,0.7-1.6
		c0.2-0.6,0.2-1.2,0.2-1.8C218.5,5.9,218.2,4.9,217.7,3.9z"/>
	<path class="st0" d="M253.4,18.2c-0.6,1.5-1.5,2.9-2.6,4.2c-1.1,1.2-2.4,2.1-3.8,2.7c-3,1.3-6.3,1.3-9.3,0
		c-1.4-0.6-2.7-1.5-3.8-2.6c-1.1-1.2-2-2.6-2.6-4.1c-0.6-1.7-1-3.4-0.9-5.2c0-1.9,0.3-3.7,1-5.4c0.6-1.5,1.5-2.9,2.7-4.1
		c1.1-1.1,2.5-2,3.9-2.6c1.5-0.6,3.1-0.9,4.8-0.9s3.4,0.3,4.9,1.1c1.4,0.7,2.7,1.6,3.7,2.8s1.8,2.6,2.3,4.1c0.5,1.6,0.8,3.2,0.8,4.9
		C254.4,14.8,254.1,16.5,253.4,18.2z M249.9,8.7c-0.3-1.4-0.8-2.7-1.5-4c-0.6-1.1-1.5-2.1-2.5-2.9c-1-0.7-2.3-1.1-3.6-1.1
		s-2.6,0.4-3.6,1.1c-1,0.8-1.9,1.7-2.5,2.9c-0.7,1.3-1.2,2.6-1.4,4c-0.3,1.5-0.5,3-0.5,4.5c0,1.6,0.2,3.1,0.5,4.6
		c0.3,1.4,0.8,2.7,1.5,3.9c0.6,1.1,1.5,2,2.5,2.7s2.3,1,3.5,1c1.3,0,2.5-0.4,3.5-1.1c1-0.8,1.9-1.8,2.5-2.9c0.7-1.3,1.2-2.6,1.5-4
		c0.3-1.5,0.5-2.9,0.5-4.4C250.4,11.6,250.3,10.1,249.9,8.7L249.9,8.7z"/>
	<path class="st0" d="M278.8,1.3c-0.4,0.2-0.8,0.6-1.2,0.9c-0.4,0.4-0.7,0.9-1,1.3c-0.3,0.5-0.7,1.1-1.1,1.8c-0.3,0.4-0.6,1-1.1,1.8
		s-0.9,1.6-1.4,2.4s-0.9,1.6-1.4,2.4c-0.4,0.8-0.8,1.3-1.1,1.8v7.1c0,0.7,0,1.3,0,2c0,0.5,0.1,0.9,0.3,1.4c0.3,0.5,0.7,0.8,1.2,1
		s1,0.3,1.5,0.4V26h-9.9v-0.4c0.5-0.1,1-0.2,1.5-0.3c0.5-0.2,1-0.6,1.3-1.1c0.1-0.2,0.2-0.4,0.2-0.6c0.1-0.3,0.1-0.6,0.1-1
		s0.1-0.7,0.1-1.1s0-0.8,0-1.2c0-0.7,0-1.4,0-2.3s0-2,0-3.3c0-0.1-0.2-0.3-0.4-0.7c-0.2-0.4-0.5-0.8-0.8-1.4c-0.3-0.6-0.7-1.2-1-1.8
		s-0.7-1.3-1.1-2c-0.4-0.6-0.7-1.2-1-1.8s-0.6-1-0.8-1.4c-0.4-0.7-0.8-1.3-1.1-1.9c-0.3-0.5-0.6-1-1-1.4c-0.3-0.4-0.6-0.7-1-1
		c-0.3-0.2-0.7-0.4-1.1-0.4V0.5h9.7v0.4c-0.3,0-0.6,0.1-1,0.1c-0.3,0-0.6,0.1-0.9,0.2s-0.5,0.2-0.7,0.4s-0.3,0.5-0.3,0.7
		c0.1,0.5,0.2,1,0.5,1.4c0.3,0.6,0.6,1.2,1,1.9c0.2,0.4,0.5,0.9,0.8,1.5s0.7,1.2,1.1,1.9s0.8,1.4,1.2,2.1c0.4,0.7,0.8,1.4,1.1,2
		c0.3-0.4,0.6-1,1-1.7s0.8-1.4,1.2-2.1c0.4-0.7,0.8-1.4,1.2-2.1s0.7-1.2,0.8-1.5c0.1-0.2,0.2-0.4,0.4-0.7c0.1-0.2,0.3-0.5,0.4-0.8
		s0.2-0.5,0.3-0.8c0.1-0.3,0.1-0.5,0.1-0.8s-0.1-0.6-0.3-0.9c-0.2-0.2-0.4-0.4-0.7-0.5c-0.3-0.1-0.6-0.2-0.9-0.3s-0.6-0.1-0.9-0.2
		V0.5h7.4v0.4C279.8,0.9,279.3,1.1,278.8,1.3z"/>
	<path class="st0" d="M122,38.1c-0.4,0.3-0.8,0.6-1.2,1c-0.4,0.4-0.8,0.8-1.1,1.3c-0.4,0.5-0.7,0.9-1.1,1.4c0.1,0.2,0.3,0.4,0.5,0.6
		c0.2,0.3,0.4,0.5,0.7,0.8c0.2,0.3,0.5,0.5,0.8,0.7s0.6,0.3,1,0.3c0.2,0,0.4,0,0.6-0.1s0.3-0.2,0.5-0.3c0.1-0.1,0.3-0.2,0.4-0.4
		c0.1-0.1,0.2-0.3,0.3-0.4l0.1,0.1c-0.1,0.2-0.2,0.5-0.4,0.7c-0.2,0.3-0.4,0.5-0.7,0.7c-0.3,0.2-0.6,0.4-0.9,0.5s-0.7,0.2-1,0.2
		s-0.6-0.1-0.9-0.2c-0.3-0.1-0.6-0.3-0.8-0.5c-0.2-0.2-0.5-0.4-0.7-0.7s-0.4-0.5-0.6-0.8c-0.2,0.2-0.3,0.4-0.5,0.6
		c-0.2,0.3-0.5,0.5-0.8,0.7s-0.7,0.4-1,0.5c-0.4,0.1-0.8,0.2-1.2,0.2c-0.4,0-0.8-0.1-1.2-0.2c-0.7-0.2-1.2-0.8-1.5-1.4
		c-0.1-0.3-0.2-0.7-0.2-1c0-0.4,0.1-0.8,0.3-1.2c0.2-0.4,0.4-0.7,0.7-1c0.3-0.3,0.6-0.5,1-0.8c0.3-0.2,0.7-0.4,1-0.6
		c-0.2-0.2-0.4-0.4-0.6-0.6c-0.2-0.2-0.3-0.4-0.5-0.6c-0.1-0.2-0.3-0.4-0.3-0.7c-0.1-0.3-0.1-0.6-0.1-0.9c0-0.3,0.1-0.6,0.2-0.9
		c0.2-0.3,0.4-0.5,0.6-0.7s0.5-0.4,0.8-0.5s0.6-0.2,0.9-0.2s0.5,0,0.8,0.1s0.5,0.2,0.7,0.4s0.4,0.4,0.5,0.6c0.1,0.3,0.2,0.5,0.2,0.8
		s-0.1,0.6-0.2,0.9c-0.1,0.2-0.3,0.5-0.5,0.7s-0.4,0.3-0.6,0.5c-0.2,0.1-0.3,0.2-0.4,0.3c0.3,0.2,0.6,0.5,0.9,0.8s0.5,0.5,0.8,0.8
		s0.5,0.6,0.8,1c0.2,0.3,0.4,0.6,0.6,0.9c0.2-0.3,0.4-0.6,0.7-0.9c0.2-0.3,0.4-0.6,0.5-0.8s0.3-0.5,0.4-0.7s0.1-0.3,0.1-0.5
		s0-0.4-0.2-0.5c-0.1-0.1-0.3-0.2-0.5-0.3s-0.4-0.1-0.6-0.1s-0.5,0-0.7,0v-0.2l5.2-0.1v0.2C122.9,37.6,122.4,37.8,122,38.1z
		 M117,42.1c-0.1-0.2-0.2-0.3-0.4-0.5s-0.3-0.3-0.4-0.5s-0.3-0.4-0.5-0.6c-0.1-0.1-0.2-0.3-0.4-0.4s-0.3-0.3-0.4-0.4
		s-0.3-0.3-0.4-0.4l-0.4-0.3c-0.2,0.2-0.4,0.3-0.5,0.5c-0.2,0.2-0.4,0.4-0.5,0.6c-0.2,0.2-0.3,0.5-0.4,0.8s-0.1,0.6-0.1,0.9
		c0,0.3,0,0.6,0.2,0.9c0.1,0.3,0.2,0.5,0.4,0.7c0.2,0.2,0.4,0.4,0.7,0.5c0.3,0.1,0.6,0.2,0.9,0.2s0.6,0,0.8-0.1
		c0.2,0,0.5-0.1,0.7-0.2c0.2-0.1,0.4-0.2,0.6-0.4c0.2-0.1,0.4-0.3,0.6-0.5C117.2,42.5,117.1,42.3,117,42.1L117,42.1z M115.9,35.4
		c-0.1-0.2-0.2-0.4-0.3-0.6c-0.1-0.2-0.3-0.3-0.4-0.4c-0.2-0.1-0.4-0.2-0.6-0.2s-0.3,0-0.5,0.1c-0.1,0.1-0.2,0.2-0.3,0.3
		c-0.1,0.1-0.1,0.3-0.2,0.4c0,0.1-0.1,0.3-0.1,0.4c0,0.3,0,0.5,0.1,0.8c0.1,0.2,0.2,0.4,0.3,0.6c0.2,0.2,0.3,0.4,0.5,0.6
		c0.2,0.2,0.4,0.4,0.7,0.6c0.2-0.2,0.4-0.5,0.6-0.8c0.1-0.3,0.2-0.7,0.2-1.1C116,35.8,116,35.6,115.9,35.4L115.9,35.4z"/>
	<path class="st0" d="M138.6,36.6c-0.4-0.5-0.8-0.9-1.2-1.3c-0.3-0.3-0.7-0.6-1.1-0.8c-0.3-0.1-0.6-0.2-0.9-0.2
		c-0.5-0.1-1-0.1-1.6-0.1c-0.1,0-0.2,0-0.3,0h-0.4h-0.3c-0.1,0-0.2,0-0.2,0c0,0.1,0,0.1,0,0.2c0,0.1,0,0.1,0,0.2c0,0.1,0,0.2,0,0.3
		s0,0.3,0,0.5c0,0.4,0,0.7,0,1.1c0,0.4,0,0.8,0,1.2v1.4h0.3c0.2,0,0.3,0,0.5,0s0.4,0,0.6,0c0.2,0,0.4,0,0.5-0.1
		c0.3-0.1,0.6-0.2,0.9-0.3c0.2-0.1,0.4-0.3,0.5-0.5s0.2-0.4,0.3-0.6c0-0.2,0.1-0.4,0.1-0.7h0.2v4.8h-0.2c-0.1-0.3-0.2-0.7-0.3-1
		s-0.3-0.6-0.5-0.8s-0.4-0.3-0.6-0.4c-0.2-0.1-0.5-0.1-0.8-0.2c-0.1,0-0.3,0-0.4,0c-0.1,0-0.2,0-0.3,0h-0.7v1.9c0,0.3,0,0.5,0,0.8
		s0,0.4,0,0.6c0,0.3,0,0.6,0.1,0.9c0,0.2,0.1,0.4,0.2,0.6c0.1,0.2,0.3,0.3,0.5,0.3c0.3,0.1,0.6,0.1,0.9,0.1v0.2h-4.8v-0.2
		c0.2,0,0.5-0.1,0.7-0.2c0.2-0.1,0.4-0.2,0.5-0.4c0.1-0.1,0.1-0.2,0.1-0.3s0.1-0.2,0.1-0.4s0-0.3,0.1-0.5c0-0.2,0-0.3,0-0.5
		c0-0.1,0-0.3,0-0.6c0-0.2,0-0.5,0-0.8s0-0.6,0-0.9v-3.8c0-0.2,0-0.4,0-0.6c0-0.2,0-0.4,0-0.5c0-0.2,0-0.3-0.1-0.5
		c0-0.1-0.1-0.2-0.1-0.3c-0.1-0.1-0.3-0.3-0.5-0.3c-0.2-0.1-0.4-0.1-0.7-0.1V34h8.3l1,2.5L138.6,36.6z"/>
	<path class="st0" d="M140.3,44.8v-0.2c0.2,0,0.5-0.1,0.7-0.2c0.2-0.1,0.4-0.2,0.5-0.4c0.1-0.1,0.1-0.2,0.1-0.3s0-0.3,0.1-0.4
		c0-0.2,0-0.3,0-0.5s0-0.3,0-0.5c0-0.1,0-0.3,0-0.6s0-0.5,0-0.8s0-0.6,0-0.9v-4.3c0-0.2,0-0.3,0-0.5c0-0.1,0-0.3-0.1-0.4
		c0-0.1-0.1-0.2-0.1-0.3c-0.1-0.2-0.3-0.3-0.5-0.4c-0.2-0.1-0.5-0.1-0.7-0.2V34h4.5v0.1c-0.2,0-0.5,0.1-0.7,0.2
		c-0.2,0.1-0.4,0.3-0.6,0.5c-0.1,0.2-0.1,0.4-0.1,0.6c0,0.3,0,0.5,0,0.7s0,0.5,0,0.7s0,0.5,0,0.7v5c0,0.3,0,0.6,0,0.8s0,0.4,0.1,0.6
		c0.1,0.2,0.3,0.3,0.6,0.4c0.2,0.1,0.5,0.1,0.7,0.2v0.2L140.3,44.8z"/>
	<path class="st0" d="M157,44.8h-9.6v-0.2c0.3,0,0.5-0.1,0.7-0.2c0.2-0.1,0.4-0.2,0.6-0.4c0.1-0.1,0.1-0.2,0.1-0.3s0.1-0.3,0.1-0.4
		c0-0.2,0-0.3,0.1-0.5s0-0.3,0-0.5c0-0.1,0-0.3,0-0.6c0-0.2,0-0.5,0-0.8s0-0.6,0-0.9v-4c0-0.2,0-0.3,0-0.5c0-0.1,0-0.3-0.1-0.4
		c0-0.1-0.1-0.2-0.1-0.3c-0.1-0.2-0.3-0.3-0.6-0.4c-0.2-0.1-0.5-0.2-0.7-0.2V34h4.8v0.1c-0.1,0-0.3,0.1-0.5,0.1s-0.4,0.1-0.5,0.2
		c-0.2,0.1-0.3,0.2-0.4,0.4c-0.1,0.2-0.2,0.4-0.2,0.7s0,0.7,0,1s0,0.6,0,0.9s0,0.6,0,0.9V41c0,0.3,0,0.5,0,0.8s0,0.6,0,0.9
		c0,0.3,0,0.6,0,0.9c0,0.2,0.1,0.4,0.2,0.6c0.1,0.1,0.1,0.1,0.2,0.1c0.1,0.1,0.3,0.1,0.4,0.1c0.2,0,0.4,0.1,0.6,0.1
		c0.2,0,0.4,0,0.6,0c0.1,0,0.2,0,0.4,0s0.4,0,0.6,0c0.2,0,0.4,0,0.6-0.1c0.2,0,0.4-0.1,0.6-0.1c0.4-0.1,0.7-0.2,1-0.4
		s0.5-0.4,0.7-0.6c0.2-0.2,0.4-0.5,0.5-0.8s0.3-0.6,0.4-0.9h0.1L157,44.8z"/>
	<path class="st0" d="M166.7,43.2c-0.2,0.4-0.5,0.7-0.8,1c-0.4,0.3-0.8,0.5-1.2,0.6c-0.5,0.1-1,0.2-1.6,0.2c-0.4,0-0.8,0-1.3-0.1
		c-0.3,0-0.6-0.1-0.9-0.2c-0.2-0.1-0.4-0.1-0.5-0.2c-0.1,0-0.1-0.1-0.2-0.1c0,0-0.1,0.1-0.2,0.2c-0.1,0.1-0.2,0.2-0.3,0.3h-0.1v-3
		h0.1c0.1,0.3,0.2,0.5,0.3,0.8c0.1,0.2,0.3,0.5,0.5,0.7s0.3,0.4,0.5,0.6c0.2,0.2,0.3,0.3,0.5,0.4c0.2,0.1,0.4,0.2,0.7,0.3
		c0.9,0.3,1.9,0.1,2.6-0.5c0.5-0.4,0.7-1,0.7-1.6c0-0.3,0-0.5-0.1-0.7s-0.2-0.4-0.4-0.5c-0.2-0.2-0.3-0.3-0.5-0.4
		c-0.2-0.1-0.4-0.2-0.7-0.3c-0.2-0.1-0.5-0.2-0.6-0.2c-0.2-0.1-0.3-0.1-0.5-0.2c-0.2-0.1-0.3-0.1-0.5-0.2s-0.4-0.1-0.6-0.2
		c-0.3-0.1-0.5-0.2-0.8-0.4c-0.2-0.2-0.5-0.4-0.6-0.6c-0.2-0.2-0.3-0.5-0.4-0.8c-0.1-0.3-0.2-0.6-0.2-0.9c0-0.5,0.1-1,0.3-1.4
		s0.5-0.7,0.8-1s0.7-0.5,1.2-0.6c0.4-0.1,0.9-0.2,1.4-0.2c0.4,0,0.8,0,1.2,0.1c0.3,0.1,0.5,0.1,0.8,0.2c0.2,0.1,0.3,0.2,0.5,0.2
		c0.1,0,0.1,0.1,0.2,0.1c0,0,0.1-0.1,0.2-0.2s0.2-0.2,0.3-0.4h0.2v2.8h-0.2c-0.1-0.3-0.3-0.7-0.5-1s-0.4-0.6-0.7-0.9
		c-0.2-0.3-0.5-0.5-0.9-0.6c-0.3-0.2-0.7-0.2-1.1-0.2c-0.3,0-0.6,0-0.9,0.1c-0.3,0.1-0.5,0.2-0.7,0.4s-0.4,0.4-0.5,0.7
		s-0.2,0.6-0.2,0.9c0,0.5,0.2,0.9,0.5,1.3c0.4,0.3,0.8,0.6,1.2,0.8c0.2,0.1,0.4,0.2,0.6,0.2c0.2,0.1,0.3,0.1,0.5,0.2
		c0.2,0.1,0.3,0.1,0.5,0.2c0.2,0.1,0.4,0.1,0.5,0.2c0.6,0.2,1.2,0.6,1.6,1.1C167.1,41,167.2,42.2,166.7,43.2L166.7,43.2z"/>
</g>
<polygon class="st0" points="0.5,39.4 106.7,40.4 106.7,38.3 "/>
<polygon class="st0" points="278.7,39.4 172,40.4 172,38.3 "/>
</svg>
